<?xml version="1.0" encoding="UTF-8" standalone="no"?>
<!-- Created with Inkscape (http://www.inkscape.org/) -->

<svg
   width="512"
   height="512"
   viewBox="0 0 512 512"
   version="1.1"
   id="svg1"
   sodipodi:docname="logo.svg"
   xmlns:inkscape="http://www.inkscape.org/namespaces/inkscape"
   xmlns:sodipodi="http://sodipodi.sourceforge.net/DTD/sodipodi-0.dtd"
   xmlns:xlink="http://www.w3.org/1999/xlink"
   xmlns="http://www.w3.org/2000/svg"
   xmlns:svg="http://www.w3.org/2000/svg">
  <sodipodi:namedview
     id="namedview1"
     pagecolor="#505050"
     bordercolor="#eeeeee"
     borderopacity="1"
     inkscape:showpageshadow="0"
     inkscape:pageopacity="0"
     inkscape:pagecheckerboard="0"
     inkscape:deskcolor="#505050" />
  <defs
     id="defs1">
    <linearGradient
       id="linearGradient15">
      <stop
         style="stop-color:#2966eb;stop-opacity:1;"
         offset="0"
         id="stop15" />
      <stop
         style="stop-color:#2966eb;stop-opacity:0.1;"
         offset="1"
         id="stop16" />
    </linearGradient>
    <linearGradient
       xlink:href="#linearGradient15"
       id="linearGradient16"
       x1="360.80737"
       y1="83.815384"
       x2="160.83536"
       y2="430.17709"
       gradientUnits="userSpaceOnUse"
       gradientTransform="matrix(1.2155013,0,0,1.2153576,-61.028832,-56.218838)" />
  </defs>
  <g
     id="layer1">
    <ellipse
       style="opacity:1;fill:none;stroke:url(#linearGradient16);stroke-width:25.9543;stroke-dasharray:25.9543, 23.3589;stroke-dashoffset:0;stroke-opacity:1"
       id="path1"
       cx="255.99973"
       cy="256.12308"
       rx="243.1002"
       ry="243.07149" />
    <path
       d="m 152.64008,403.10651 c 109.25326,0 116.05325,-0.90667 152.77322,-21.30665 l 0.90667,-3.62667 c -20.39999,2.72 -48.50663,4.53333 -73.43995,4.53333 -3.62666,0 -11.33332,-0.45333 -20.85332,-0.90666 34.90665,-29.46665 46.23997,-45.78664 53.94663,-80.23995 l 35.35998,-141.89323 c 58.93329,4.98667 59.38662,4.98667 68.90661,4.98667 21.30666,0 24.47999,-4.53333 35.35998,-48.95997 l -5.89333,-6.79999 c -18.58665,31.73331 -20.85332,33.99997 -37.17331,33.99997 -4.53333,0 -14.50665,-0.45333 -28.55998,-0.90667 -66.18662,-3.17333 -73.43994,-3.62666 -89.3066,-3.62666 -79.33328,0 -138.26657,43.06664 -138.26657,101.09326 0,14.95999 3.17333,27.19998 11.33333,43.06664 l 33.99997,-22.21332 c -8.61332,-21.75998 -10.42666,-29.01331 -10.42666,-41.70664 0,-25.83998 11.78666,-44.87996 33.99998,-55.30662 11.78666,-5.44 27.19998,-7.70666 52.58663,-7.70666 9.97333,0 11.78666,0 40.79997,2.26666 l -36.71997,147.78656 c -16.31999,66.63995 -24.93332,77.97328 -63.46662,79.78661 z"
       id="text21"
       style="font-size:453.333px;font-family:Z003;-inkscape-font-specification:Z003;fill:#2966eb;stroke:#2966eb;stroke-width:3;stroke-linecap:round;stroke-linejoin:round"
       aria-label="T" />
  </g>
</svg>
